#!OML:ASF I:\golf\golf\golf 2\Subject 1\2002-09-07\Subject1.ASF
:FULLY-SPECIFIED
:DEGREES
518
root 0.940884 18.1499 -3.74871 6.57673 -4.99013 -2.5905
lowerback -4.97998 -0.675914 -4.80638
upperback -2.0019 -0.749732 5.43478
thorax 0.852639 -0.349625 8.38202
lowerneck -25.0988 0.665774 1.58398
upperneck 20.6306 1.52453 -4.53675
head 10.8488 0.226061 -1.66452
rclavicle -2.87306e-015 1.35174e-014
rhumerus -36.2664 -23.6141 -65.4795
rradius 21.4169
rwrist -3.93109
rhand -26.3525 13.059
rfingers 7.12502
rthumb 0.205275 -16.9207
lclavicle -2.87306e-015 1.35174e-014
lhumerus -31.6241 16.8831 78.5288
lradius 20.9833
lwrist -0.876518
lhand -14.4889 35.1138
lfingers 7.12502
lthumb 11.6577 64.7695
rfemur -15.9516 -3.10789 21.0506
rtibia 25.7886
rfoot -19.7263 -12.6368
rtoes 3.45492
lfemur -12.6927 2.37868 -16.1037
ltibia 21.1753
lfoot -24.0693 4.42881
ltoes -10.1641
519
root 0.949573 18.1499 -3.7504 6.55995 -4.83752 -2.64636
lowerback -4.95976 -0.690942 -4.7597
upperback -2.00201 -0.772197 5.41928
thorax 0.84468 -0.360779 8.33637
lowerneck -25.2233 0.692161 1.58779
upperneck 20.6437 1.54441 -4.4785
head 10.8762 0.241569 -1.64136
rclavicle -1.5499e-015 -4.77083e-015
rhumerus -36.526 -24.501 -65.0324
rradius 20.9296
rwrist -3.13165
rhand -26.6073 12.793
rfingers 7.12502
rthumb -0.040828 -17.1867
lclavicle -1.5499e-015 -4.77083e-015
lhumerus -31.4967 17.0362 78.6578
lradius 20.8853
lwrist -0.817368
lhand -14.7794 34.8241
lfingers 7.12502
lthumb 11.3775 64.4955
rfemur -15.8941 -3.17804 21.0948
rtibia 25.7403
rfoot -20.0246 -12.6862
rtoes 3.19541
lfemur -12.6621 2.38639 -16.0613
ltibia 21.2159
lfoot -24.4825 4.16042
ltoes -7.85394
520
root 0.958103 18.1487 -3.75266 6.58273 -4.68231 -2.65106
lowerback -4.90765 -0.724814 -4.8415
upperback -2.0506 -0.814723 5.45718
thorax 0.773867 -0.377756 8.42348
lowerneck -25.3949 0.687324 1.5099
upperneck 20.7758 1.56854 -4.46658
head 10.9568 0.244416 -1.6228
rclavicle -1.21693e-014 6.2816e-014
rhumerus -36.8338 -25.4519 -64.3973
rradius 20.4576
rwrist -2.16228
rhand -26.6161 12.8108
rfingers 7.12502
rthumb -0.0492942 -17.169
lclavicle -1.21693e-014 6.2816e-014
lhumerus -31.4764 16.9752 78.9432
lradius 20.9499
lwrist -0.761837
lhand -14.7132 34.9119
lfingers 7.12502
lthumb 11.4413 64.5797
rfemur -15.9049 -3.25488 21.0815
rtibia 25.7277
rfoot -20.2871 -12.7415
rtoes 3.22534
lfemur -12.7142 2.43245 -16.0811
ltibia 21.2323
lfoot -24.7667 3.97921
ltoes -7.27509
521
root 0.968487 18.1513 -3.7567 6.60429 -4.50591 -2.57702
lowerback -4.84324 -0.752331 -4.98772
upperback -2.09926 -0.845914 5.47055
thorax 0.69451 -0.388319 8.52279
lowerneck -25.5001 0.64747 1.47777
upperneck 20.8288 1.55282 -4.56341
head 10.9962 0.220032 -1.65695
rclavicle -1.91237e-014 0
rhumerus -37.1085 -25.9558 -64.0065
rradius 20.1898
rwrist -1.90239
rhand -26.478 12.8133
rfingers 7.12502
rthumb 0.0840585 -17.1665
lclavicle -1.91237e-014 0
lhumerus -31.4203 16.9116 79.2449
lradius 21.0003
lwrist -0.884122
lhand -14.5791 35.5444
lfingers 7.12502
lthumb 11.5706 65.205
rfemur -15.9332 -3.37503 20.9798
rtibia 25.7403
rfoot -20.4977 -12.8024
rtoes 3.00747
lfemur -12.7955 2.60714 -16.2089
ltibia 21.2262
lfoot -24.9134 3.87179
ltoes -7.81941
522
root 0.980328 18.1537 -3.76146 6.6638 -4.29079 -2.5105
lowerback -4.89717 -0.768127 -5.07072
upperback -2.11881 -0.86111 5.45201
thorax 0.707771 -0.395461 8.55042
lowerneck -25.4839 0.592963 1.4404
upperneck 20.759 1.50033 -4.60784
head 10.9657 0.188132 -1.67476
rclavicle 1.76825e-014 -9.54166e-015
rhumerus -37.372 -26.3466 -63.7393
rradius 20.0044
rwrist -1.85208
rhand -26.3078 12.9049
rfingers 7.12502
rthumb 0.248425 -17.0747
lclavicle 1.76825e-014 -9.54166e-015
lhumerus -31.2502 16.9494 79.4679
lradius 20.9015
lwrist -1.08239
lhand -14.5026 35.8967
lfingers 7.12502
lthumb 11.6445 65.5531
rfemur -16.009 -3.57919 20.891
rtibia 25.7536
rfoot -20.5967 -12.8649
rtoes 2.57866
lfemur -12.8972 2.6426 -16.3268
ltibia 21.1881
lfoot -24.9918 3.87765
ltoes -8.07279
523
root 0.989742 18.1555 -3.76353 6.7408 -4.05475 -2.58536
lowerback -4.96827 -0.765932 -4.93625
upperback -2.1453 -0.860721 5.38923
thorax 0.717715 -0.395357 8.40261
lowerneck -25.4411 0.534809 1.45104
upperneck 20.7008 1.40114 -4.56332
head 10.9321 0.151003 -1.67549
rclavicle 1.8004e-014 3.97569e-015
rhumerus -37.7319 -27.0105 -63.43
rradius 19.7729
rwrist -1.35663
rhand -26.1665 13.0934
rfingers 7.12502
rthumb 0.384974 -16.886
lclavicle 1.8004e-014 3.97569e-015
lhumerus -31.067 16.9301 79.5473
lradius 20.7929
lwrist -1.45101
lhand -14.2634 35.8819
lfingers 7.12502
lthumb 11.8752 65.5252
rfemur -16.0674 -3.7151 20.9655
rtibia 25.7232
rfoot -20.6053 -12.9717
rtoes 2.86525
lfemur -12.9969 2.5388 -16.2608
ltibia 21.1567
lfoot -25.1299 3.91944
ltoes -8.38005
524
root 0.996389 18.1586 -3.76514 6.76155 -3.81644 -2.62497
lowerback -4.91114 -0.783244 -4.86879
upperback -2.17219 -0.8869 5.31995
thorax 0.660938 -0.405949 8.28647
lowerneck -25.5307 0.493584 1.50808
upperneck 20.7227 1.32261 -4.56449
head 10.9538 0.118731 -1.69916
rclavicle -2.38542e-015 1.59028e-014
rhumerus -37.9949 -27.4352 -63.3028
rradius 19.6143
rwrist -1.16888
rhand -25.9592 13.0369
rfingers 7.12502
rthumb 0.585167 -16.9421
lclavicle -2.38542e-015 1.59028e-014
lhumerus -30.9191 16.6952 79.7117
lradius 20.7822
lwrist -1.55455
lhand -14.2505 35.852
lfingers 7.12502
lthumb 11.8876 65.4945
rfemur -16.0388 -3.7637 21.0039
rtibia 25.6461
rfoot -20.6149 -13.1331
rtoes 3.26352
lfemur -13.0666 2.5444 -16.2304
ltibia 21.1575
lfoot -25.2742 3.80261
ltoes -8.78746
525
root 1.00307 18.1611 -3.76764 6.73683 -3.59455 -2.68053
lowerback -4.79182 -0.836537 -4.87232
upperback -2.18151 -0.961506 5.35262
thorax 0.598424 -0.4409 8.32038
lowerneck -25.6934 0.484973 1.43834
upperneck 20.8212 1.33792 -4.55388
head 11.0202 0.118512 -1.68367
rclavicle -9.27144e-016 7.95139e-015
rhumerus -38.0939 -27.5269 -63.2436
rradius 19.4742
rwrist -1.26617
rhand -25.7917 12.8954
rfingers 7.12502
rthumb 0.746971 -17.083
lclavicle -9.27144e-016 7.95139e-015
lhumerus -30.8268 16.2932 80.1119
lradius 21.0001
lwrist -1.17491
lhand -14.1542 36.2426
lfingers 7.12502
lthumb 11.9804 65.8797
rfemur -15.9433 -3.73241 21.0505
rtibia 25.5442
rfoot -20.6401 -13.3621
rtoes 3.22484
lfemur -13.1011 2.59632 -16.1826
ltibia 21.1836
lfoot -25.4355 3.62744
ltoes -9.07739
526
root 1.01092 18.1624 -3.76922 6.71982 -3.41337 -2.82919
lowerback -4.71411 -0.851054 -4.77612
upperback -2.17522 -0.987847 5.41657
thorax 0.565983 -0.453512 8.33226
lowerneck -25.7924 0.448842 1.3326
upperneck 20.8867 1.3295 -4.54883
head 11.0619 0.104775 -1.66739
rclavicle 1.51387e-014 -1.82882e-014
rhumerus -38.2776 -27.9976 -62.8837
rradius 19.2205
rwrist -0.673086
rhand -25.8023 12.9183
rfingers 7.12502
rthumb 0.736699 -17.0602
lclavicle 1.51387e-014 -1.82882e-014
lhumerus -30.7106 15.8211 80.5657
lradius 21.2995
lwrist -0.865037
lhand -13.7575 36.5213
lfingers 7.12502
lthumb 12.3629 66.1357
rfemur -15.8412 -3.69846 21.19
rtibia 25.4394
rfoot -20.6792 -13.585
rtoes 2.70159
lfemur -13.1255 2.62189 -16.0355
ltibia 21.2209
lfoot -25.627 3.6121
ltoes -9.74829
527
root 1.01676 18.1628 -3.77231 6.76754 -3.18921 -2.8964
lowerback -4.72129 -0.850359 -4.7894
upperback -2.17599 -0.986156 5.43479
thorax 0.569326 -0.452556 8.35992
lowerneck -25.8372 0.400973 1.23617
upperneck 20.8619 1.28821 -4.50775
head 11.0585 0.0832679 -1.64318
rclavicle 1.06816e-014 -3.73715e-014
rhumerus -38.3975 -28.1484 -62.8035
rradius 19.1164
rwrist -0.574899
rhand -25.7909 12.8315
rfingers 7.12502
rthumb 0.747675 -17.1469
lclavicle 1.06816e-014 -3.73715e-014
lhumerus -30.524 15.5862 80.8522
lradius 21.2978
lwrist -1.03922
lhand -13.5998 35.955
lfingers 7.12502
lthumb 12.515 65.5603
rfemur -15.833 -3.71537 21.2535
rtibia 25.3621
rfoot -20.7457 -13.8244
rtoes 1.94988
lfemur -13.2349 2.62314 -15.977
ltibia 21.2416
lfoot -25.7886 3.55344
ltoes -10.074
528
root 1.02052 18.1636 -3.77822 6.85165 -2.83476 -2.95575
lowerback -4.68998 -0.902473 -4.79652
upperback -2.21469 -1.05547 5.42795
thorax 0.524048 -0.484565 8.35314
lowerneck -25.8714 0.408512 1.14096
upperneck 20.7998 1.29387 -4.36023
head 11.0396 0.0978929 -1.57154
rclavicle 7.89858e-015 -2.3059e-014
rhumerus -38.4223 -27.8094 -63.1415
rradius 19.2369
rwrist -1.21204
rhand -25.4871 12.5416
rfingers 7.12502
rthumb 1.04112 -17.4356
lclavicle 7.89858e-015 -2.3059e-014
lhumerus -30.3788 15.462 81.0103
lradius 21.3187
lwrist -1.20774
lhand -13.5516 35.5322
lfingers 7.12502
lthumb 12.5615 65.1346
rfemur -15.8991 -3.779 21.3318
rtibia 25.3301
rfoot -20.9113 -14.0758
rtoes 1.86165
lfemur -13.415 2.52105 -15.9079
ltibia 21.2531
lfoot -25.8092 3.50713
ltoes -10.417
529
root 1.0278 18.1654 -3.78087 6.84228 -2.54294 -2.92904
lowerback -4.64311 -0.950048 -4.81447
upperback -2.17516 -1.1197 5.38046
thorax 0.550036 -0.519127 8.30854
lowerneck -25.8719 0.391554 1.08445
upperneck 20.6517 1.26656 -4.28516
head 10.9824 0.0923572 -1.53717
rclavicle 8.06942e-015 -5.24792e-014
rhumerus -38.3517 -27.5569 -63.4974
rradius 19.3621
rwrist -1.59401
rhand -25.1545 12.3563
rfingers 7.12502
rthumb 1.36236 -17.6191
lclavicle 8.06942e-015 -5.24792e-014
lhumerus -30.21 15.2153 81.2321
lradius 21.5583
lwrist -1.17218
lhand -13.3759 35.2742
lfingers 7.12502
lthumb 12.7308 64.8661
rfemur -15.894 -4.00083 21.3078
rtibia 25.345
rfoot -21.011 -14.1849
rtoes 1.67972
lfemur -13.4669 2.37666 -15.9424
ltibia 21.2741
lfoot -25.8447 3.51102
ltoes -10.6901
530
root 1.03428 18.164 -3.78409 6.78575 -2.35164 -2.85983
lowerback -4.61946 -0.978048 -4.92625
upperback -2.07672 -1.15474 5.36931
thorax 0.647102 -0.542968 8.35964
lowerneck -25.7778 0.327071 1.03406
upperneck 20.3932 1.21629 -4.39795
head 10.8688 0.0541209 -1.57454
rclavicle 1.02001e-014 -5.56597e-014
rhumerus -38.1578 -27.1555 -63.882
rradius 19.4933
rwrist -1.95014
rhand -24.9524 12.342
rfingers 7.12502
rthumb 1.55757 -17.6321
lclavicle 1.02001e-014 -5.56597e-014
lhumerus -30.0062 15.08 81.5114
lradius 21.7874
lwrist -1.37489
lhand -13.0662 34.7007
lfingers 7.12502
lthumb 13.0294 64.2738
rfemur -15.8602 -4.21043 21.2426
rtibia 25.3786
rfoot -20.9966 -14.309
rtoes 0.907554
lfemur -13.4628 2.34675 -16.0267
ltibia 21.3012
lfoot -25.954 3.26172
ltoes -10.0524
531
root 1.03544 18.1609 -3.79425 6.81965 -2.13015 -2.8888
lowerback -4.46694 -0.993882 -5.02618
upperback -2.11171 -1.17571 5.39945
thorax 0.531256 -0.547519 8.45188
lowerneck -25.6956 0.275519 0.961721
upperneck 20.2447 1.18186 -4.45619
head 10.7984 0.0273946 -1.58707
rclavicle 1.32689e-014 -2.70347e-014
rhumerus -38.149 -26.7839 -64.1433
rradius 19.6191
rwrist -2.26525
rhand -24.88 12.3828
rfingers 7.12502
rthumb 1.62745 -17.5908
lclavicle 1.32689e-014 -2.70347e-014
lhumerus -29.9214 14.8036 81.8162
lradius 22.0935
lwrist -1.48242
lhand -12.7484 34.4839
lfingers 7.12502
lthumb 13.3357 64.0371
rfemur -15.9341 -4.22137 21.3086
rtibia 25.3986
rfoot -21.0251 -14.4911
rtoes 0.912955
lfemur -13.6095 2.37005 -15.9823
ltibia 21.3382
lfoot -25.9923 3.03192
ltoes -9.91154
532
root 1.0377 18.1609 -3.80103 6.87413 -1.92424 -2.92342
lowerback -4.30986 -0.983303 -5.07427
upperback -2.17774 -1.16254 5.37462
thorax 0.372465 -0.532401 8.45619
lowerneck -25.7818 0.254426 0.90218
upperneck 20.3333 1.14995 -4.34502
head 10.8442 0.0208384 -1.54366
rclavicle -8.17502e-015 1.74931e-014
rhumerus -38.2355 -26.4812 -64.4119
rradius 19.7611
rwrist -2.56491
rhand -25.0397 12.3149
rfingers 7.12502
rthumb 1.47325 -17.6598
lclavicle -8.17502e-015 1.74931e-014
lhumerus -29.8856 14.1674 82.1385
lradius 22.5265
lwrist -1.20036
lhand -12.6219 34.4916
lfingers 7.12502
lthumb 13.4576 64.0368
rfemur -16.0062 -4.2321 21.36
rtibia 25.3904
rfoot -21.096 -14.4951
rtoes 1.61341
lfemur -13.7793 2.36759 -15.942
ltibia 21.4047
lfoot -26.0471 3.01519
ltoes -10.6761
